<svg width="240" height="33" xmlns="http://www.w3.org/2000/svg"><g fill="none" fill-rule="evenodd"><path d="M119.961 13.528c-.256-1.803-1.994-3.175-3.988-3.175-3.605 0-4.96 3.048-4.96 6.223 0 3.023 1.355 6.071 4.96 6.071 2.454 0 3.835-1.677 4.141-4.064H124c-.409 4.521-3.554 7.417-8.027 7.417-5.65 0-8.973-4.192-8.973-9.424C107 11.191 110.323 7 115.973 7c4.013 0 7.388 2.337 7.874 6.528h-3.886M126 7h13.794v3.328h-9.739v3.857h8.938v3.076h-8.938v4.411H140V25h-14V7M146.34 15.143h4.754c1.936 0 2.986-.756 2.986-2.572 0-1.74-1.05-2.495-2.986-2.495h-4.754v5.067zM142 7h10.643c3.538 0 5.776 2.243 5.776 4.966 0 2.118-.939 3.706-3.123 4.513v.05c2.129.504 2.737 2.395 2.875 4.21.083 1.135.055 3.253.829 4.261h-4.34c-.525-1.135-.47-2.874-.69-4.311-.305-1.89-1.106-2.722-3.29-2.722h-4.34V25H142V7zM165.853 10.328H160V7h16v3.328h-5.853V25h-4.294V10.328M177 25h4V7h-4zM184 7h13v3.328h-8.934v4.16h7.742v3.075h-7.742V25H184V7M199 25h4V7h-4zM207 7h13.794v3.328h-9.738v3.857h8.937v3.076h-8.937v4.411H221V25h-14V7M227.223 21.672h3.765c2.447 0 4.787-1.412 4.787-5.395 0-3.63-1.345-5.95-5.54-5.95h-3.012v11.345zM223 7h8.284C236.26 7 240 9.924 240 15.899c0 5.219-2.852 9.101-8.716 9.101H223V7z" fill="#686968"/><path fill="#EC962D" d="M67 27.748L83.01 33 99 27.745V5.099L83.026 0 67.02 5.099 67 27.748"/><path fill="#FFFFFE" d="M94 12.558L81.881 25 74 16.805l3.443-3.535 4.46 4.638L90.579 9 94 12.558"/><path d="M11.603 17.202c-.81.77-2.497.807-3.98 1.1-1.484.331-2.834.881-2.834 2.79 0 1.944 1.383 2.422 2.935 2.422 3.744 0 3.879-3.23 3.879-4.367v-1.945zM.539 13.349C.81 8.469 4.823 7 8.736 7c3.474 0 7.657.845 7.657 5.395v9.871c0 1.725.168 3.45.607 4.22h-4.858c-.168-.587-.302-1.211-.337-1.835C10.288 26.376 8.061 27 5.936 27 2.631 27 0 25.202 0 21.312c0-4.294 2.968-5.321 5.936-5.762 2.935-.477 5.667-.366 5.667-2.495 0-2.239-1.417-2.569-3.103-2.569-1.822 0-3.002.807-3.171 2.863H.539zM37.512 26h-4.915L29.5 13.919h-.067L26.47 26H21.52L16 8h5.05l3.199 12.22h.067L27.21 8h4.646l2.962 12.186h.068L38.085 8H43l-5.488 18M47.51 20.321c.033 2.275 1.77 3.193 3.64 3.193 1.37 0 3.107-.588 3.107-2.422 0-1.578-1.97-2.13-5.378-2.936-2.739-.66-5.478-1.725-5.478-5.065C43.401 8.248 47.21 7 50.917 7c3.774 0 7.248 1.394 7.616 6.055h-4.51c-.133-2.019-1.536-2.568-3.24-2.568-1.07 0-2.639.22-2.639 1.76 0 1.872 2.672 2.13 5.378 2.827C56.295 15.77 59 16.87 59 20.394 59 25.386 55.059 27 51.117 27 47.109 27 43.2 25.348 43 20.321h4.51" fill="#3D3D3C"/></g></svg>