<svg viewBox="0 0 643 461" xmlns="http://www.w3.org/2000/svg"><defs><linearGradient x1="100%" y1="50%" x2="0%" y2="50%" id="a"><stop stop-color="#397AC7" offset="0%"/><stop stop-color="#1759A6" offset="100%"/></linearGradient><filter x="-12.5%" y="-23.3%" width="125%" height="146.6%" filterUnits="objectBoundingBox" id="b"><feGaussianBlur stdDeviation="26" in="SourceGraphic"/></filter></defs><path d="M832.28 329.147l-97.162 188.586a83.518 83.518 0 0 1-31.21 33.331c-39.52 23.757-90.794 10.945-114.525-28.615l-143.409-239.06c-7.91-13.187-3.644-30.297 9.529-38.216 13.173-7.918 30.264-3.648 38.175 9.539l143.408 239.06c7.91 13.187 25.002 17.458 38.175 9.539a27.84 27.84 0 0 0 10.404-11.11l97.264-188.787c.046-.089 5.467-10.209 16.263-30.36a83.506 83.506 0 0 1 37.85-36.759c41.53-20.023 91.413-2.553 111.415 39.022l114.78 238.566c6.668 13.858.851 30.503-12.993 37.177-13.843 6.675-30.47.851-37.138-13.007l-114.78-238.566c-6.668-13.858-23.296-19.681-37.14-13.007a27.835 27.835 0 0 0-12.654 12.326c-.046.089-5.463 10.203-16.252 30.34z" filter="url(#b)" transform="translate(-381 -165)" fill="url(#a)" fill-rule="nonzero" opacity=".599"/></svg>