<svg width="9" height="10" xmlns="http://www.w3.org/2000/svg"><path d="M1.656 1.415a5.214 5.214 0 0 1 1.72-1.09A4.982 4.982 0 0 1 5.318.002c.072.003.116.014.134.032.019.018.011.045-.023.079a.523.523 0 0 1-.078.061 3.783 3.783 0 0 0-.495.401L4.75.683a4.66 4.66 0 0 0-1.175 1.97 4.574 4.574 0 0 0-.081 2.191 4.214 4.214 0 0 0 1.133 2.078 4.07 4.07 0 0 0 1.87 1.077c.718.19 1.44.2 2.164.028.052-.012.089-.008.11.013.031.032.012.085-.057.162a5.307 5.307 0 0 1-2.647 1.641 5.142 5.142 0 0 1-2.488.006 4.839 4.839 0 0 1-1.16-.467 4.646 4.646 0 0 1-1.133-.891A4.774 4.774 0 0 1 .003 5.01c.018-.428.084-.842.2-1.244a5.24 5.24 0 0 1 .515-1.18 5.212 5.212 0 0 1 .938-1.172z" fill="#FFF" fill-rule="evenodd"/></svg>