<svg viewBox="0 0 359 461" xmlns="http://www.w3.org/2000/svg"><defs><filter x="-23.3%" y="-23.3%" width="146.6%" height="146.6%" filterUnits="objectBoundingBox" id="a"><feGaussianBlur stdDeviation="26" in="SourceGraphic"/></filter></defs><path d="M895.5 225C802.988 225 728 299.999 728 392.5S802.988 560 895.5 560c92.501 0 167.5-74.999 167.5-167.5S988.001 225 895.5 225zm.363 293.669c-69.374 0-125.807-56.433-125.807-125.806 0-69.374 56.433-125.807 125.807-125.807 69.373 0 125.806 56.433 125.806 125.807 0 69.373-56.433 125.806-125.806 125.806zM999.916 392.62c0 11.556-9.352 20.907-20.908 20.907H895.38c-11.546 0-20.907-9.351-20.907-20.907v-83.63c0-11.556 9.361-20.907 20.907-20.907s20.907 9.352 20.907 20.908v62.722h62.722c11.557 0 20.908 9.351 20.908 20.907z" filter="url(#a)" transform="translate(-665 -162)" fill="#185AA7" fill-rule="nonzero" opacity=".6"/></svg>