<svg width="10" height="10" xmlns="http://www.w3.org/2000/svg"><path d="M6.255 2.835c.382.224.686.527.91.91.223.383.336.801.336 1.255 0 .454-.113.872-.336 1.255a2.487 2.487 0 0 1-.91.91C5.87 7.388 5.454 7.5 5 7.5c-.454 0-.872-.113-1.255-.336a2.487 2.487 0 0 1-.91-.91A2.444 2.444 0 0 1 2.5 5c0-.454.113-.872.336-1.255.224-.382.527-.686.91-.91C4.13 2.612 4.546 2.5 5 2.5c.454 0 .872.113 1.255.336zM2.35 7.231c.115 0 .213.041.294.124a.407.407 0 0 1 .123.295c0 .114-.041.21-.124.293l-.588.589a.4.4 0 0 1-.293.123.401.401 0 0 1-.295-.122.401.401 0 0 1-.122-.295.4.4 0 0 1 .12-.296l.589-.588a.411.411 0 0 1 .296-.123zM5 8.332c.115 0 .213.04.295.122.081.082.122.18.122.295v.834c0 .115-.04.213-.122.295A.401.401 0 0 1 5 10a.401.401 0 0 1-.295-.122.401.401 0 0 1-.122-.295v-.834c0-.115.04-.213.122-.295A.401.401 0 0 1 5 8.332zM.417 4.582h.834c.115 0 .213.042.295.123.081.082.122.18.122.295 0 .115-.04.213-.122.295a.401.401 0 0 1-.295.122H.417a.401.401 0 0 1-.295-.122A.401.401 0 0 1 0 5c0-.115.04-.213.122-.295a.403.403 0 0 1 .295-.122zm7.236 2.65c.113 0 .21.04.292.123l.589.588a.404.404 0 0 1 .123.296c0 .113-.04.21-.123.293a.4.4 0 0 1-.293.123.402.402 0 0 1-.296-.123l-.588-.588a.397.397 0 0 1-.12-.293c0-.115.04-.213.122-.295a.396.396 0 0 1 .294-.125zM1.762 1.34c.113 0 .21.04.293.123l.588.589a.4.4 0 0 1 .124.292c0 .116-.041.214-.123.295a.401.401 0 0 1-.294.123.4.4 0 0 1-.296-.12l-.589-.59a.4.4 0 0 1-.12-.295c0-.115.04-.213.122-.295a.401.401 0 0 1 .295-.122zM5 0c.115 0 .213.04.295.122.081.082.122.18.122.295v.834c0 .115-.04.213-.122.295A.401.401 0 0 1 5 1.668a.401.401 0 0 1-.295-.122.401.401 0 0 1-.122-.295V.416c0-.115.04-.213.122-.295A.404.404 0 0 1 5 0zm3.75 4.583h.833c.115 0 .213.04.295.122.081.082.122.18.122.295 0 .115-.04.213-.122.295a.401.401 0 0 1-.295.122h-.834a.401.401 0 0 1-.295-.122A.401.401 0 0 1 8.332 5c0-.115.04-.213.122-.295a.401.401 0 0 1 .295-.122zM8.24 1.34c.113 0 .21.04.293.123a.4.4 0 0 1 .123.293c0 .115-.04.213-.123.296l-.589.59a.397.397 0 0 1-.292.12.407.407 0 0 1-.417-.417c0-.115.04-.212.12-.292l.59-.589a.405.405 0 0 1 .295-.124z" fill="#FFF" fill-rule="nonzero"/></svg>