<svg width="180" height="180" xmlns="http://www.w3.org/2000/svg"><defs><linearGradient x1="100%" y1="50%" x2="0%" y2="50%" id="a"><stop stop-color="#397AC7" offset="0%"/><stop stop-color="#1759A6" offset="100%"/></linearGradient></defs><path d="M11.104 61.997a7.692 7.692 0 0 1 13.178-7.938l36.484 60.564a6.492 6.492 0 0 0 11.307-.352l24.805-47.944 4.058-7.537a21.87 21.87 0 0 1 39.09.544l29.206 60.448a7.692 7.692 0 1 1-13.852 6.693l-29.2-60.436a6.486 6.486 0 0 0-5.747-3.654c-2.452-.033-4.714 1.32-5.897 3.597l-4.052 7.525-24.755 47.847a21.877 21.877 0 0 1-38.133 1.22L11.104 61.998z" fill="url(#a)" fill-rule="nonzero"/></svg>